<svg width="313" height="49" viewBox="0 0 313 49" fill="none" xmlns="http://www.w3.org/2000/svg">
<rect width="313" height="49" fill="#1E1E1E"/>
<circle cx="24.5" cy="24.5" r="24.5" fill="black"/>
<path d="M38.6674 9.58696C20.4921 9.58696 16.8571 13.222 16.8571 13.222V28.0894C16.3118 27.9076 15.6575 27.7622 15.0395 27.7622C12.0224 27.7622 9.58696 30.1977 9.58696 33.2148C9.58696 36.2319 12.0224 38.6674 15.0395 38.6674C18.0566 38.6674 20.4921 36.2319 20.4921 33.2148V18.7836C23.1457 17.9476 27.7259 17.1842 35.0323 16.9661V24.4543C34.4871 24.2726 33.8328 24.1272 33.2148 24.1272C30.1977 24.1272 27.7622 26.5627 27.7622 29.5798C27.7622 32.5968 30.1977 35.0323 33.2148 35.0323C36.2319 35.0323 38.6674 32.5968 38.6674 29.5798V9.58696Z" fill="white"/>
<text fill="#646464" xml:space="preserve" style="white-space: pre" font-family="Inter" font-size="40" font-weight="600" letter-spacing="0em"><tspan x="160.016" y="38.5455">CENDO</tspan></text>
<text fill="white" xml:space="preserve" style="white-space: pre" font-family="Inter" font-size="40" font-weight="600" letter-spacing="0em"><tspan x="54" y="38.5455">CRES</tspan></text>
</svg>
