<svg width="547" height="50" viewBox="0 0 547 50" fill="none" xmlns="http://www.w3.org/2000/svg">
<path d="M546.08 10C527.905 10 524.27 13.6351 524.27 13.6351V28.5024C523.725 28.3207 523.071 28.1753 522.453 28.1753C519.435 28.1753 517 30.6108 517 33.6278C517 36.6449 519.435 39.0804 522.453 39.0804C525.47 39.0804 527.905 36.6449 527.905 33.6278V19.1967C530.559 18.3606 535.139 17.5973 542.445 17.3792V24.8674C541.9 24.6856 541.246 24.5402 540.628 24.5402C537.611 24.5402 535.175 26.9757 535.175 29.9928C535.175 33.0099 537.611 35.4454 540.628 35.4454C543.645 35.4454 546.08 33.0099 546.08 29.9928V10Z" fill="#303030"/>
<path d="M3.71262 43V6.63636H27.0081V12.1584H10.3V22.0305H25.4101V27.5526H10.3V43H3.71262ZM66.5024 24.8182C66.5024 28.7363 65.7685 32.0921 64.3007 34.8857C62.8447 37.6674 60.8561 39.7981 58.3348 41.2777C55.8253 42.7573 52.9785 43.4972 49.7943 43.4972C46.6101 43.4972 43.7574 42.7573 41.2361 41.2777C38.7266 39.7862 36.738 37.6496 35.2702 34.8679C33.8142 32.0743 33.0862 28.7244 33.0862 24.8182C33.0862 20.9001 33.8142 17.5502 35.2702 14.7685C36.738 11.9749 38.7266 9.8383 41.2361 8.35866C43.7574 6.87902 46.6101 6.1392 49.7943 6.1392C52.9785 6.1392 55.8253 6.87902 58.3348 8.35866C60.8561 9.8383 62.8447 11.9749 64.3007 14.7685C65.7685 17.5502 66.5024 20.9001 66.5024 24.8182ZM59.8795 24.8182C59.8795 22.0601 59.4475 19.7341 58.5834 17.8402C57.7311 15.9344 56.5474 14.4962 55.0322 13.5256C53.5171 12.5431 51.7711 12.0518 49.7943 12.0518C47.8175 12.0518 46.0715 12.5431 44.5564 13.5256C43.0412 14.4962 41.8516 15.9344 40.9875 17.8402C40.1352 19.7341 39.7091 22.0601 39.7091 24.8182C39.7091 27.5762 40.1352 29.9081 40.9875 31.8139C41.8516 33.7079 43.0412 35.1461 44.5564 36.1286C46.0715 37.0992 47.8175 37.5845 49.7943 37.5845C51.7711 37.5845 53.5171 37.0992 55.0322 36.1286C56.5474 35.1461 57.7311 33.7079 58.5834 31.8139C59.4475 29.9081 59.8795 27.5762 59.8795 24.8182ZM73.7302 43V6.63636H87.3666C90.1601 6.63636 92.5039 7.12168 94.3978 8.09233C96.3036 9.06297 97.7418 10.4242 98.7124 12.1761C99.6949 13.9162 100.186 15.9463 100.186 18.2663C100.186 20.5982 99.689 22.6224 98.6947 24.3388C97.7122 26.0433 96.2622 27.3632 94.3445 28.2983C92.4269 29.2216 90.0713 29.6832 87.2778 29.6832H77.5654V24.2145H86.39C88.0235 24.2145 89.3611 23.9896 90.4028 23.5398C91.4445 23.0781 92.2139 22.4093 92.711 21.5334C93.22 20.6456 93.4745 19.5566 93.4745 18.2663C93.4745 16.9761 93.22 15.8752 92.711 14.9638C92.202 14.0405 91.4267 13.3421 90.385 12.8686C89.3434 12.3833 87.9999 12.1406 86.3545 12.1406H80.3176V43H73.7302ZM92.5157 26.5227L101.518 43H94.167L85.3247 26.5227H92.5157ZM120.652 43V6.63636H143.948V12.1584H127.239V22.0305H142.35V27.5526H127.239V43H120.652ZM151.078 43H144.046L156.848 6.63636H164.98L177.8 43H170.769L161.056 14.0938H160.772L151.078 43ZM151.309 28.7422H170.485V34.0334H151.309V28.7422ZM213.472 6.63636V43H207.613L190.479 18.2308H190.177V43H183.59V6.63636H189.484L206.601 31.4233H206.921V6.63636H213.472ZM241.412 16.6328C241.246 15.0821 240.548 13.8748 239.317 13.0107C238.098 12.1465 236.512 11.7145 234.559 11.7145C233.185 11.7145 232.008 11.9216 231.025 12.3359C230.043 12.7502 229.291 13.3125 228.77 14.0227C228.249 14.733 227.983 15.5438 227.971 16.4553C227.971 17.2128 228.143 17.8698 228.486 18.4261C228.841 18.9825 229.321 19.456 229.924 19.8466C230.528 20.2254 231.197 20.545 231.931 20.8054C232.665 21.0658 233.404 21.2848 234.15 21.4624L237.559 22.3146C238.932 22.6342 240.252 23.0663 241.519 23.6108C242.797 24.1553 243.939 24.8419 244.946 25.6705C245.964 26.4991 246.768 27.4993 247.36 28.6712C247.952 29.843 248.248 31.2161 248.248 32.7905C248.248 34.9212 247.704 36.7973 246.615 38.419C245.526 40.0289 243.951 41.2895 241.892 42.201C239.844 43.1006 237.364 43.5504 234.452 43.5504C231.623 43.5504 229.167 43.1125 227.083 42.2365C225.012 41.3606 223.39 40.0821 222.218 38.4013C221.058 36.7204 220.431 34.6726 220.336 32.2578H226.817C226.912 33.5244 227.302 34.5779 227.989 35.4183C228.675 36.2588 229.569 36.8861 230.67 37.3004C231.783 37.7147 233.026 37.9219 234.399 37.9219C235.831 37.9219 237.086 37.7088 238.163 37.2827C239.252 36.8447 240.104 36.241 240.72 35.4716C241.335 34.6903 241.649 33.7789 241.661 32.7372C241.649 31.7902 241.371 31.009 240.826 30.3935C240.282 29.7661 239.518 29.2453 238.536 28.831C237.565 28.4048 236.429 28.026 235.127 27.6946L230.99 26.6293C227.995 25.8598 225.627 24.6939 223.887 23.1314C222.159 21.5571 221.295 19.4678 221.295 16.8636C221.295 14.7211 221.875 12.8449 223.035 11.2351C224.207 9.62524 225.799 8.37642 227.811 7.48863C229.824 6.58901 232.102 6.1392 234.647 6.1392C237.228 6.1392 239.489 6.58901 241.43 7.48863C243.383 8.37642 244.916 9.6134 246.029 11.1996C247.141 12.7739 247.715 14.585 247.751 16.6328H241.412ZM268.523 43V6.63636H282.444C285.071 6.63636 287.255 7.05066 288.995 7.87926C290.747 8.69602 292.055 9.81463 292.919 11.2351C293.795 12.6555 294.233 14.2654 294.233 16.0646C294.233 17.5443 293.949 18.8108 293.381 19.8643C292.813 20.906 292.049 21.7524 291.091 22.4034C290.132 23.0544 289.061 23.522 287.877 23.8061V24.1612C289.167 24.2322 290.404 24.6288 291.588 25.3509C292.783 26.0611 293.76 27.0672 294.517 28.3693C295.275 29.6714 295.654 31.2457 295.654 33.0923C295.654 34.9744 295.198 36.6671 294.287 38.1705C293.375 39.6619 292.002 40.8397 290.167 41.7038C288.333 42.5679 286.024 43 283.243 43H268.523ZM275.111 37.4957H282.195C284.586 37.4957 286.308 37.04 287.362 36.1286C288.427 35.2053 288.96 34.0215 288.96 32.5774C288.96 31.5002 288.694 30.5296 288.161 29.6655C287.628 28.7895 286.871 28.103 285.888 27.6058C284.906 27.0968 283.734 26.8423 282.373 26.8423H275.111V37.4957ZM275.111 22.1016H281.627C282.763 22.1016 283.787 21.8944 284.699 21.4801C285.61 21.054 286.326 20.4562 286.847 19.6868C287.38 18.9055 287.646 17.9822 287.646 16.9169C287.646 15.5083 287.149 14.3482 286.155 13.4368C285.172 12.5253 283.71 12.0696 281.769 12.0696H275.111V22.1016ZM299.899 6.63636H307.338L316.234 22.723H316.589L325.485 6.63636H332.924L319.696 29.4347V43H313.127V29.4347L299.899 6.63636ZM351.992 43V6.63636H375.287V12.1584H358.579V22.0305H373.689V27.5526H358.579V43H351.992ZM382.418 43H375.386L388.188 6.63636H396.32L409.14 43H402.109L392.396 14.0938H392.112L382.418 43ZM382.648 28.7422H401.824V34.0334H382.648V28.7422ZM444.812 6.63636V43H438.953L421.819 18.2308H421.517V43H414.929V6.63636H420.824L437.941 31.4233H438.26V6.63636H444.812ZM472.752 16.6328C472.586 15.0821 471.888 13.8748 470.657 13.0107C469.438 12.1465 467.851 11.7145 465.898 11.7145C464.525 11.7145 463.347 11.9216 462.365 12.3359C461.382 12.7502 460.631 13.3125 460.11 14.0227C459.589 14.733 459.323 15.5438 459.311 16.4553C459.311 17.2128 459.483 17.8698 459.826 18.4261C460.181 18.9825 460.66 19.456 461.264 19.8466C461.868 20.2254 462.537 20.545 463.271 20.8054C464.004 21.0658 464.744 21.2848 465.49 21.4624L468.899 22.3146C470.272 22.6342 471.592 23.0663 472.859 23.6108C474.137 24.1553 475.279 24.8419 476.285 25.6705C477.303 26.4991 478.108 27.4993 478.7 28.6712C479.292 29.843 479.588 31.2161 479.588 32.7905C479.588 34.9212 479.043 36.7973 477.954 38.419C476.865 40.0289 475.291 41.2895 473.231 42.201C471.184 43.1006 468.704 43.5504 465.792 43.5504C462.963 43.5504 460.507 43.1125 458.423 42.2365C456.352 41.3606 454.73 40.0821 453.558 38.4013C452.398 36.7204 451.771 34.6726 451.676 32.2578H458.157C458.252 33.5244 458.642 34.5779 459.329 35.4183C460.015 36.2588 460.909 36.8861 462.01 37.3004C463.123 37.7147 464.365 37.9219 465.739 37.9219C467.171 37.9219 468.426 37.7088 469.503 37.2827C470.592 36.8447 471.444 36.241 472.06 35.4716C472.675 34.6903 472.989 33.7789 473.001 32.7372C472.989 31.7902 472.711 31.009 472.166 30.3935C471.622 29.7661 470.858 29.2453 469.876 28.831C468.905 28.4048 467.769 28.026 466.467 27.6946L462.329 26.6293C459.335 25.8598 456.967 24.6939 455.227 23.1314C453.499 21.5571 452.635 19.4678 452.635 16.8636C452.635 14.7211 453.215 12.8449 454.375 11.2351C455.547 9.62524 457.139 8.37642 459.151 7.48863C461.164 6.58901 463.442 6.1392 465.987 6.1392C468.568 6.1392 470.829 6.58901 472.77 7.48863C474.723 8.37642 476.256 9.6134 477.369 11.1996C478.481 12.7739 479.055 14.585 479.091 16.6328H472.752Z" fill="#303030"/>
</svg>
